<?xml version="1.0" encoding="UTF-8" standalone="no"?>
<!-- Created with Inkscape (http://www.inkscape.org/) -->

<svg
   xmlns:dc="http://purl.org/dc/elements/1.1/"
   xmlns:cc="http://creativecommons.org/ns#"
   xmlns:rdf="http://www.w3.org/1999/02/22-rdf-syntax-ns#"
   xmlns:svg="http://www.w3.org/2000/svg"
   xmlns="http://www.w3.org/2000/svg"
   xmlns:sodipodi="http://sodipodi.sourceforge.net/DTD/sodipodi-0.dtd"
   xmlns:inkscape="http://www.inkscape.org/namespaces/inkscape"
   width="533.08752"
   height="492.81961"
   id="svg2"
   version="1.1"
   inkscape:version="0.48.0 r9654"
   sodipodi:docname="drawing-6.svg">
  <defs
     id="defs4" />
  <sodipodi:namedview
     id="base"
     pagecolor="#ffffff"
     bordercolor="#666666"
     borderopacity="1.0"
     inkscape:pageopacity="0.0"
     inkscape:pageshadow="2"
     inkscape:zoom="0.49409788"
     inkscape:cx="266.54535"
     inkscape:cy="246.40949"
     inkscape:document-units="px"
     inkscape:current-layer="layer1"
     showgrid="false"
     inkscape:window-width="864"
     inkscape:window-height="635"
     inkscape:window-x="0"
     inkscape:window-y="0"
     inkscape:window-maximized="0"
     fit-margin-top="0"
     fit-margin-left="0"
     fit-margin-right="0"
     fit-margin-bottom="0" />
  <metadata
     id="metadata7">
    <rdf:RDF>
      <cc:Work
         rdf:about="">
        <dc:format>image/svg+xml</dc:format>
        <dc:type
           rdf:resource="http://purl.org/dc/dcmitype/StillImage" />
        <dc:title></dc:title>
      </cc:Work>
    </rdf:RDF>
  </metadata>
  <g
     inkscape:label="Layer 1"
     inkscape:groupmode="layer"
     id="layer1"
     transform="translate(-132.74183,-248.5338)">
    <path
       style="color:#000000;fill:#800000;fill-opacity:1;fill-rule:nonzero;stroke:#000000;stroke-width:0.25;stroke-linecap:round;stroke-linejoin:round;stroke-miterlimit:4;stroke-opacity:1;stroke-dashoffset:0;marker:none;visibility:visible;display:inline;overflow:visible;enable-background:accumulate"
       d="m -388.45232,-761.4748 0,50.71875 -50.71875,0 0,35.71875 50.71875,0 0,24.28125 -50.71875,0 0,35.71875 50.71875,0 0,24.28125 -50.71875,0 0,35.71875 50.71875,0 0,24.28125 -50.71875,0 0,35.71875 50.71875,0 0,24.28125 -50.71875,0 0,35.71875 50.71875,0 0,24.28125 -50.71875,0 0,35.71875 50.71875,0 0,24.28125 -50.71875,0 0,35.71875 50.71875,0 0,24.28125 -50.71875,0 0,35.71875 50.71875,0 0,50.71875 35.6875,0 0,-50.71875 24.3125,0 0,50.71875 35.6875,0 0,-50.71875 24.3125,0 0,50.71875 35.6875,0 0,-50.71875 24.3125,0 0,50.71875 35.6875,0 0,-50.71875 24.3125,0 0,50.71875 35.6875,0 0,-50.71875 24.3125,0 0,50.71875 35.6875,0 0,-50.71875 24.3125,0 0,50.71875 35.6874996,0 0,-50.71875 24.3125004,0 0,50.71875 35.6875,0 0,-50.71875 50.71875,0 0,-35.71875 -50.71875,0 0,-24.28125 50.71875,0 0,-35.71875 -50.71875,0 0,-24.28125 50.71875,0 0,-35.71875 -50.71875,0 0,-24.28125 50.71875,0 0,-35.71875 -50.71875,0 0,-24.28125 50.71875,0 0,-35.71875 -50.71875,0 0,-24.28125 50.71875,0 0,-35.71875 -50.71875,0 0,-24.28125 50.71875,0 0,-35.71875 -50.71875,0 0,-24.28125 50.71875,0 0,-35.71875 -50.71875,0 0,-50.71875 -35.6875,0 0,50.71875 -24.3125004,0 0,-50.71875 -35.6874996,0 0,50.71875 -24.3125,0 0,-50.71875 -35.6875,0 0,50.71875 -24.3125,0 0,-50.71875 -35.6875,0 0,50.71875 -24.3125,0 0,-50.71875 -35.6875,0 0,50.71875 -24.3125,0 0,-50.71875 -35.6875,0 0,50.71875 -24.3125,0 0,-50.71875 -35.6875,0 0,50.71875 -24.3125,0 0,-50.71875 -35.6875,0 z m 35.6875,86.4375 24.3125,0 0,24.28125 -24.3125,0 0,-24.28125 z m 60,0 24.3125,0 0,24.28125 -24.3125,0 0,-24.28125 z m 60,0 24.3125,0 0,24.28125 -24.3125,0 0,-24.28125 z m 60,0 24.3125,0 0,24.28125 -24.3125,0 0,-24.28125 z m 60,0 24.3125,0 0,24.28125 -24.3125,0 0,-24.28125 z m 60,0 24.3125,0 0,24.28125 -24.3125,0 0,-24.28125 z m 59.9999996,0 24.3125004,0 0,24.28125 -24.3125004,0 0,-24.28125 z m -359.9999996,60 24.3125,0 0,24.28125 -24.3125,0 0,-24.28125 z m 60,0 24.3125,0 0,24.28125 -24.3125,0 0,-24.28125 z m 60,0 24.3125,0 0,24.28125 -24.3125,0 0,-24.28125 z m 60,0 24.3125,0 0,24.28125 -24.3125,0 0,-24.28125 z m 60,0 24.3125,0 0,24.28125 -24.3125,0 0,-24.28125 z m 60,0 24.3125,0 0,24.28125 -24.3125,0 0,-24.28125 z m 59.9999996,0 24.3125004,0 0,24.28125 -24.3125004,0 0,-24.28125 z m -359.9999996,60 24.3125,0 0,24.28125 -24.3125,0 0,-24.28125 z m 60,0 24.3125,0 0,24.28125 -24.3125,0 0,-24.28125 z m 60,0 24.3125,0 0,24.28125 -24.3125,0 0,-24.28125 z m 60,0 24.3125,0 0,24.28125 -24.3125,0 0,-24.28125 z m 60,0 24.3125,0 0,24.28125 -24.3125,0 0,-24.28125 z m 60,0 24.3125,0 0,24.28125 -24.3125,0 0,-24.28125 z m 59.9999996,0 24.3125004,0 0,24.28125 -24.3125004,0 0,-24.28125 z m -359.9999996,60 24.3125,0 0,24.28125 -24.3125,0 0,-24.28125 z m 60,0 24.3125,0 0,24.28125 -24.3125,0 0,-24.28125 z m 60,0 24.3125,0 0,24.28125 -24.3125,0 0,-24.28125 z m 60,0 24.3125,0 0,24.28125 -24.3125,0 0,-24.28125 z m 60,0 24.3125,0 0,24.28125 -24.3125,0 0,-24.28125 z m 60,0 24.3125,0 0,24.28125 -24.3125,0 0,-24.28125 z m 59.9999996,0 24.3125004,0 0,24.28125 -24.3125004,0 0,-24.28125 z m -359.9999996,60 24.3125,0 0,24.28125 -24.3125,0 0,-24.28125 z m 60,0 24.3125,0 0,24.28125 -24.3125,0 0,-24.28125 z m 60,0 24.3125,0 0,24.28125 -24.3125,0 0,-24.28125 z m 60,0 24.3125,0 0,24.28125 -24.3125,0 0,-24.28125 z m 60,0 24.3125,0 0,24.28125 -24.3125,0 0,-24.28125 z m 60,0 24.3125,0 0,24.28125 -24.3125,0 0,-24.28125 z m 59.9999996,0 24.3125004,0 0,24.28125 -24.3125004,0 0,-24.28125 z m -359.9999996,60 24.3125,0 0,24.28125 -24.3125,0 0,-24.28125 z m 60,0 24.3125,0 0,24.28125 -24.3125,0 0,-24.28125 z m 60,0 24.3125,0 0,24.28125 -24.3125,0 0,-24.28125 z m 60,0 24.3125,0 0,24.28125 -24.3125,0 0,-24.28125 z m 60,0 24.3125,0 0,24.28125 -24.3125,0 0,-24.28125 z m 60,0 24.3125,0 0,24.28125 -24.3125,0 0,-24.28125 z m 59.9999996,0 24.3125004,0 0,24.28125 -24.3125004,0 0,-24.28125 z m -359.9999996,60 24.3125,0 0,24.28125 -24.3125,0 0,-24.28125 z m 60,0 24.3125,0 0,24.28125 -24.3125,0 0,-24.28125 z m 60,0 24.3125,0 0,24.28125 -24.3125,0 0,-24.28125 z m 60,0 24.3125,0 0,24.28125 -24.3125,0 0,-24.28125 z m 60,0 24.3125,0 0,24.28125 -24.3125,0 0,-24.28125 z m 60,0 24.3125,0 0,24.28125 -24.3125,0 0,-24.28125 z m 59.9999996,0 24.3125004,0 0,24.28125 -24.3125004,0 0,-24.28125 z"
       id="rect3006"
       inkscape:connector-curvature="0" />
    <path
       style="color:#000000;fill:#ff3333;fill-opacity:1;fill-rule:nonzero;stroke:#000000;stroke-width:0.25;stroke-linecap:round;stroke-linejoin:round;stroke-miterlimit:4;stroke-opacity:1;stroke-dasharray:none;stroke-dashoffset:0;marker:none;visibility:visible;display:inline;overflow:visible;enable-background:accumulate"
       d="m -176.51482,-690.9748 c -59.72806,-0.23053 -121.11633,6.8953 -145.25,18.4375 -2.24225,1.07238 -4.47485,2.21034 -6.6875,3.4375 l 0,18.34375 -24.3125,0 0,-1.4375 c -13.61056,11.41973 -25.87231,25.1455 -35.6875,39.40625 l 0,22.03125 -12.1875,0 c -4.0378,11.37282 -4.99015,23.68195 -5.625,35.71875 l 16.4375,0 c 4.22648,-15.7814 9.1152,-32.0459 20.28125,-46.03125 19.95885,-24.9983 48.08291,-49.88064 76.78125,-65.3125 l 0,-8.65625 19.21875,0 c 24.83553,-8.49963 70.0636,-14.13455 116.8125,-15.5625 -6.5418,-0.21078 -13.1448,-0.34939 -19.78125,-0.375 z m 19.78125,0.375 c 42.82284,1.37975 82.47149,6.80463 103.96875,17.40625 l 0,-1.84375 24.3125,0 0,19.1875 c 15.16452,14.10642 27.1363196,32.28554 35.6874996,52.53125 l 0,-11.71875 23.9062504,0 c -3.93469,-13.2892 -9.72167,-25.40125 -17.40625,-35.71875 l -6.5000004,0 0,-7.8125 c -4.44805,-4.76452 -9.38034,-9.01206 -14.84375,-12.65625 -23.7635396,-15.85071 -87.7405096,-21.24999 -149.1249996,-19.375 z m 188.28125,76.9375 0,22.90625 -19.53125,0 c 3.92158,11.51559 6.79242,23.52401 8.59375,35.71875 l 10.9375,0 0,24.28125 -8.8125,0 c 0.35509,12.05401 -0.35148,24.05004 -2.15625,35.71875 l 3.5625,0 c 14.63191,-39.57207 17.52025,-83.1178 7.40625,-118.625 z m -228.53125,8.1875 c -3.86209,-8.7e-4 -7.69766,0.17164 -11.46875,0.53125 l 0,5.65625 c 8.21707,-2.70377 16.6505,-4.50052 25.15625,-5.4375 -4.60615,-0.49445 -9.16804,-0.74898 -13.6875,-0.75 z m 13.6875,0.75 c 3.49411,0.37508 7.00795,0.90359 10.53125,1.5625 l 0,-2.28125 c -3.51759,0.0865 -7.02953,0.33301 -10.53125,0.71875 z m 34.84375,1.0625 0,7.28125 c 8.06449,2.99954 16.08883,6.7338 23.9375,11.21875 10.61457,6.06548 33.63574,18.04291 37.0625,31.75 5.03873,20.15494 -5.31368,41.61702 -21.9375,58.375 l 3.53125,0 c 20.23227,-16.75899 35.20401,-38.21729 34.5,-58.375 -0.47871,-13.70709 -20.90872,-25.68452 -30.21875,-31.75 -3.07466,-2.00313 -6.213,-3.88687 -9.40625,-5.59375 l -1.78125,0 0,-0.90625 c -11.3795,-5.85114 -23.40768,-9.86795 -35.6875,-12 z m -84.3125,3.8125 c -22.32968,7.47808 -41.34066,22.42479 -53.65625,44.8125 l 16.46875,0 c 11.8213,-15.44654 26.06426,-27.37377 41.625,-35.71875 l -4.4375,0 0,-9.09375 z m 65.46875,44.03125 c -23.96855,0.58466 -51.37688,27.78672 -43.0625,60.78125 l 1.90625,0 0,5.96875 c 1.53817,4.02536 3.42633,7.51109 5.65625,10.46875 -1.86619,-3.46777 -3.13416,-7.65038 -3.71875,-12.59375 -3.01817,-25.52175 15.06821,-48.13877 33.75,-58.5625 l 0,-5.28125 13.125,0 c -2.47338,-0.5925 -5.05098,-0.8448 -7.65625,-0.78125 z m -35.5,77.21875 c 5.46407,10.15338 15.94997,14.25571 28.71875,13.875 -11.4738,-0.30993 -21.67542,-4.53304 -28.71875,-13.875 z m 49.46875,-77.21875 c -1.93302,0.0525 -3.97508,0.31462 -6.0625,0.78125 l 10.9375,0 0,5.78125 c 5.55128,4.8541 9.81636,12.55373 11.78125,23.65625 4.46986,-21.86676 -4.10979,-30.55941 -16.65625,-30.21875 z m -139.4375,14.5625 c -3.87349,10.18749 -6.55082,21.57068 -7.8125,34.1875 -0.99678,9.96786 0.63751,19.47812 4.4375,28.46875 -1.86667,-8.99106 -1.45329,-18.50035 1.6875,-28.46875 2.66002,-8.44251 5.84041,-16.33293 9.46875,-23.6875 l -7.78125,0 0,-10.5 z m -3.375,62.65625 c 5.47187,26.35592 30.48437,48.21264 63.375,63.65625 l 0,-6.3125 c -26.42829,-13.13741 -48.07127,-29.92612 -59.4375,-49.5 l -0.5625,0 0,-0.96875 c -1.26421,-2.25477 -2.39169,-4.54852 -3.375,-6.875 z m -110.46875,-52.15625 c 0.4514,12.05446 1.83665,23.98024 4.09375,35.71875 l 3.5625,0 c 0.26749,-11.73866 1.4213,-23.66412 3.5625,-35.71875 l -11.21875,0 z m 293.84375,38.96875 c -5.36647,4.96632 -11.26294,9.45717 -17.4375,13.28125 5.97738,-3.26687 11.83813,-7.03715 17.4375,-11.15625 l 0,-2.125 z m -17.4375,13.28125 c -14.91865,8.15362 -30.4331,13.31756 -43.5625,13.78125 13.7867,0.28655 29.38845,-5.00285 43.5625,-13.78125 z m -268,7.75 c 1.02794,12.19934 3.0002,24.1331 5.90625,35.71875 l 3.84375,0 0,13.4375 c 7.94447,24.94869 20.10134,48.06534 35.6875,68.5 l 0,-21.9375 7.46875,0 c -23.07207,-28.54511 -40.87292,-61.05238 -51.25,-95.71875 l -1.65625,0 z m 411.59375,0 c -10.6108304,20.31359 -24.62555,38.69672 -41.84375,53.21875 l 0,6.78125 -8.6875,0 c -2.04631,1.4806 -4.12423,2.93963 -6.25,4.3125 -15.91024,10.27522 -38.63423,15.58451 -64.03125,16.625 33.20938,1.26742 62.50588,-3.83254 79.5625,-16.625 20.8265296,-15.61989 34.9785596,-38.40964 42.9375,-64.3125 l -1.6875,0 z m -120.8125,80.9375 c -32.57445,-1.24318 -68.92237,-8.62477 -101.25,-20.9375 l -14.5625,0 c 35.62927,14.77697 78.5839,22.46271 115.8125,20.9375 z m -221.03125,33.9375 0,5.125 -22.5,0 c 16.17547,20.646 35.87483,38.46189 58.1875,52.5625 l 0,-16.84375 11.90625,0 c -17.13483,-11.9795 -33.14333,-25.6984 -47.59375,-40.84375 z m 300,48.71875 0,16.40625 -24.3125,0 0,-7.40625 c -25.74557,23.67951 -47.28527,30.12043 -77.5625,31.625 8.62025,0.3049 17.18648,0.40625 25.65625,0.40625 45.59807,0 70.29084,-4.12734 97.9687496,-41.03125 l -21.7499996,0 z m -101.875,40.625 c -32.7903,-1.15981 -66.15,-5.27858 -96.125,-18.125 -14.49273,-6.21117 -28.54683,-13.64512 -42,-22.125 l 0,16.03125 -11.6875,0 c 3.9271,2.14423 7.93679,4.17557 12,6.09375 34.36584,16.22362 77.09359,18.53125 117.78125,18.53125 7.1247,0 13.76937,-0.0951 20.03125,-0.40625 z"
       id="path2987"
       inkscape:connector-curvature="0" />
    <path
       style="color:#000000;fill:#ff3333;fill-opacity:1;fill-rule:nonzero;stroke:#000000;stroke-width:0.25;stroke-linecap:round;stroke-linejoin:round;stroke-miterlimit:4;stroke-opacity:1;stroke-dasharray:none;stroke-dashoffset:0;marker:none;visibility:visible;display:inline;overflow:visible;enable-background:accumulate"
       d="m 1050.1675,-701.0544 c -1.5741,0.0206 -3.1606,0.11326 -4.75,0.25 -5.473,0.21811 -5.5558,8.16769 -10.375,10.15625 -8.0847,4.11078 -13.9816,-6.37687 -21.6563,-7.5625 -3.0126,-1.27128 -9.6911,1.23707 -7.0312,5 6.5491,3.19192 5.4017,11.73236 0.875,16.1875 -3.8498,0.37915 -7.66487,0.99851 -11.43754,1.90625 -4.22592,-2.11839 -7.26421,-6.98962 -5.71875,-11.75 1.31916,-3.38686 -2.18139,-5.74265 -4.90625,-3.71875 -8.35429,3.55432 -17.9474,5.46442 -23.59375,13.25 -3.43777,3.79967 -3.94932,11.55553 -10.8125,10.625 -3.86309,-0.23115 -9.30752,-2.52486 -11.4375,2 -6.54719,7.76788 -13.42398,15.75196 -17.53125,25.09375 -0.15612,1.08945 1.9e-4,2.01041 0.375,2.84375 -4.1798,3.45757 -7.9327,7.30372 -9.8125,12.6875 -0.85556,1.80976 -1.12696,4.04395 -1.53125,6.1875 -2.80457,0.72053 -4.21632,4.06407 -5.125,7.09375 -0.22139,0.0577 -0.41386,0.14566 -0.65625,0.1875 -3.74927,0.94221 -9.61149,0.35835 -10.375,5.34375 -4.06772,9.42958 -8.38796,19.16982 -9.6875,29.375 0.20251,1.41505 0.82511,2.45531 1.71875,3.21875 -0.24714,2.4852 -1.13324,4.64793 -4.125,5.8125 -3.48687,1.66928 -9.33734,2.30611 -9.09375,7.34375 -2.11041,10.05035 -4.41299,20.42778 -3.65625,30.6875 0.97333,2.73046 3.35088,3.54793 6,3.75 -0.14735,2.68202 -0.0198,5.30452 0.625,7.78125 -1.58439,3.89532 -2.73082,7.87189 -3.5625,11.9375 -0.23921,0.003 -0.48071,10e-4 -0.71875,0 -5.11836,1.76583 -3.26456,8.65432 -2.375,12.59375 0.56761,4.74857 0.41362,10.11704 1.09375,15.125 0.0838,6.92249 0.35976,13.85041 0.375,20.65625 1.85633,25.8414 7.62415,51.77073 18.21875,75.59375 11.90176,30.46381 29.79818,58.99254 54.25,80.75 4.3122,4.3148 8.82363,8.4126 13.5,12.3125 3.31829,5.18752 9.84272,8.24223 14.6875,11.84375 2.85933,0.93993 6.34644,5.23396 9.46875,5.25 1.0152,0.59787 2.03417,1.17277 3.0625,1.75 2.01766,-0.48241 5.24943,1.04923 2.96875,-2 -0.50036,-1.32827 -0.68913,-2.69249 -0.59375,-4.0625 3.76906,-2.57598 9.01359,-1.37674 12.5625,1.6875 -2.58995,1.07433 -3.09469,6.84149 0.65629,6.9375 0.5484,0.26799 1.0807,0.58427 1.625,0.875 -1.79238,1.15197 -3.89464,1.73551 -6.12504,1.5 3.56606,6.9265 12.45474,8.74129 19.06254,11.84375 3.7604,0.44318 9.5392,5.92344 12.4062,1.875 4.63,1.76189 9.2963,2.81635 13.9063,0.75 0.9674,-2.0961 0.8457,-4.21315 0,-6.0625 3.747,1.66371 6.7607,5.04713 6.7187,9.375 -0.089,2.42102 1.118,3.86039 2.875,4.71875 -0.7505,2.94569 3.021,6.31496 5.8438,7 9.6627,2.41795 17.1594,11.2817 27.3438,11.53125 4.3347,-0.71658 4.6273,-6.97944 8.5937,-8.90625 5.9967,-5.7931 17.3856,0.20892 15.5313,8.59375 -0.1601,3.19415 -2.7975,8.23346 2.1562,8.78125 17.8436,0.7379 38.0742,-0.56376 51.7812,-12.8125 -0.6291,-1.09507 -1.5221,-2.02756 -2.625,-2.625 0.5228,-2.1382 0.9575,-4.39932 2.5626,-5.90625 1.291,-2.32242 3.4495,-3.65265 5.7812,-4.15625 -0.4063,3.8159 5.3171,5.32263 8.4375,4.46875 0.6188,-0.16456 1.2478,-0.26281 1.875,-0.375 0.6228,1.04183 1.0632,2.24703 1.1563,3.625 0.7425,3.11438 -0.3783,8.74816 4.5,7.78125 15.8552,-4.29728 33.1722,-10.84507 43.3437,-24.25 0.8721,2.93715 1.5834,6.47824 5.3437,4.90625 15.9524,-8.00231 33.0567,-18.94868 39.3438,-36.4375 -1.3359,-0.83667 -2.9355,-1.25598 -4.5,-0.96875 -6.3313,1.9024 -14.75,-2.63463 -19.75,2.4375 1.3165,7.17868 -3.642,16.04206 -11.8125,14.8125 -5.2204,0.45027 -7.446,-5.80934 -11.625,-7 -7.625,1.91147 -10.5725,10.80221 -17.6875,13.875 -6.2988,4.41968 -13.501,7.13521 -20.7812,9.65625 -1.4274,-2.02268 -2.6603,-4.27882 -4.6563,-5.3125 -7.8529,0.35628 -12.4784,8.46665 -20.0625,10.0625 -4.5065,1.96704 -9.2423,3.17088 -14.0625,4.0625 -2.0071,-4.81132 -8.4368,-1.43805 -12.1875,-2.28125 -8.5075,-0.40657 -16.9296,-2.19394 -25.4688,-1.96875 -0.3888,0.16616 -0.7046,0.4444 -0.9374,0.75 -3.6165,0.89743 -7.1612,2.60865 -10.875,3.21875 -2.3373,-1.77281 -6.6903,-1.09925 -9.4688,-2 0.5808,-5.46448 -5.1833,-9.56942 -10.375,-8.71875 -24.862,-5.38587 -46.2961,-20.1471 -69.2813,-30 -0.3748,0.17262 -1.8897,-0.41397 -1.7187,0 0.4714,1.03702 0.7087,2.13609 0.8125,3.21875 -3.9165,-2.87153 -7.75088,-5.88007 -11.56254,-8.90625 1.02802,-0.21969 2.11336,-0.28294 3.21875,-0.125 -3.08862,-7.36555 -10.52358,-10.40862 -17.9375,-11.46875 -3.25326,-2.50248 -6.55348,-4.96154 -9.90625,-7.28125 -0.40165,0.0946 -1.7414,-0.7522 -1.65625,-0.3125 0.27557,1.19642 0.27582,2.37054 0.125,3.53125 -1.79564,-3.00155 -2.30888,-7.27345 -2.46875,-10.46875 -1.67464,-5.83513 -7.9479,-8.99741 -11.75,-13.4375 -2.25518,-1.38837 -5.34342,-5.81274 -7.6875,-3.0625 -3.52236,-5.03699 -7.01227,-10.10564 -10.5625,-15.09375 0.0226,-0.1608 0.0389,-0.34429 0.0625,-0.5 -0.48028,-6.05165 -6.001,-10.39225 -8.84375,-15.5 -1.56011,-1.45958 -3.22722,-4.98804 -5.3125,-5.125 0.75903,-8.85275 -5.72149,-15.66631 -12.65625,-20.25 0.29114,-0.13523 0.58,-0.2635 0.875,-0.375 1.33879,-4.86997 -2.15557,-8.98249 -6.5625,-11.0625 0.50325,-2.33231 1.41736,-4.6254 2.28125,-6.46875 1.23481,-5.9166 -2.8275,-11.7405 -4.125,-17.46875 -1.45144,-2.48297 -2.08485,-8.50772 -6.15625,-6 -0.42158,0.14133 -0.85297,0.23687 -1.28125,0.3125 -0.0142,-0.0314 -0.0164,-0.0622 -0.0312,-0.0937 -2.57396,-7.42527 -5.92556,-14.59971 -7.46875,-22.34375 1.83568,-0.90696 3.8046,-1.48751 5.71875,-1.59375 3.87741,-6.20626 -2.66487,-13.94152 -8.84375,-15.78125 -0.9197,-5.81003 -1.85338,-11.61688 -3.28125,-17.21875 0.0204,-0.11423 0.0416,-0.22949 0.0625,-0.34375 2.9926,-3.49021 9.12847,-4.69462 8.25,-10.3125 -0.43149,-8.69273 -1.82793,-17.37808 -0.59375,-26.0625 0.17706,-3.02935 0.48601,-6.07864 0.84375,-9.125 1.20964,-1.73378 1.90354,-3.8982 1.96875,-6.125 6.22632,-26.49253 24.81124,-47.93596 44.28125,-65.96875 14.36102,-13.04777 30.43853,-24.07183 46.65625,-34.59375 4.11324,-3.51045 5.69431,-10.07563 12.1875,-10.0625 7.38414,-0.18656 14.55414,-0.51393 21.56244,-2.90625 6.842,-2.23344 14.7992,-2.89016 20.625,-7.09375 -5.3945,0.27372 -9.5331,-3.7321 -13.7812,-5.90625 -0.547,-0.0626 -1.1079,-0.0436 -1.6563,0 -0.155,0.0308 -0.3135,0.0634 -0.4687,0.0937 2.7055,-2.48107 5.4043,-4.89697 9.625,-4.03125 7.2736,1.28623 14.3433,2.38771 21.6875,1.4375 0.863,-0.0999 1.743,-0.16038 2.625,-0.21875 -2.9438,0.6271 -5.731,1.76762 -8.2813,3.78125 -0.9228,1.71223 -3.8745,3.1063 -0.1562,2.9375 4.91,2.91632 10.4288,1.90473 15.7813,0.65625 7.8244,-2.7272 17.3556,1.02833 24.1874,-4.15625 1.959,-1.83559 -1.0216,-4.6058 -2.9687,-4.4375 -5.5803,1.38391 -11.6883,0.83507 -17.6563,0.625 2.8274,-0.30563 5.5562,-0.88353 8.0938,-2.03125 -5.3411,-0.80497 -8.5817,-5.55542 -12.3125,-8.53125 -0.5235,-0.17017 -1.0788,-0.24613 -1.625,-0.3125 -4.1093,-0.0175 -8.2732,-0.2362 -12.4375,-0.46875 7.8751,-0.86203 15.7708,-1.48344 23.6562,-2.03125 5.2746,-1.07559 9.7284,-6.06737 15.4688,-2.90625 6.6217,3.4186 13.1214,6.6307 20.4375,7.9375 7.0951,1.36509 14.4494,4.63244 21.5625,3.78125 -4.9015,-2.37725 -6.6902,-7.88129 -9.4375,-11.84375 -0.4548,-0.32006 -0.963,-0.58464 -1.4686,-0.8125 -22.2338,-7.08234 -44.1709,-19.24683 -67.7814,-18.9375 z m 43.5,29.25 c -3.0638,0.0104 -6.0807,0.5709 -9.0313,2.0625 -1.2449,1.49441 -4.4275,2.26943 -0.75,2.84375 4.2318,3.83486 9.8499,3.9399 15.3438,3.78125 2.9146,-0.39615 5.8886,0.081 8.8438,0.65625 1.2383,3.23626 5.4469,1.98011 8.1562,1.34375 1.3361,0.0901 2.6636,0.0532 3.9688,-0.15625 8.101,0.22553 16.6493,2.71812 24.25,0.34375 0.4526,0.231 0.9042,0.42128 1.375,0.625 -0.2798,0.0566 -0.5639,0.11962 -0.8438,0.1875 0.09,4.34522 5.3946,3.63688 8.2812,3.59375 2.3188,0.29131 4.6228,0.86899 6.9376,1.5625 4.8543,2.61243 9.582,5.59914 15.0312,4.8125 0.4314,-0.10925 0.7399,-0.30382 0.9688,-0.5625 2.3991,0.21935 4.7794,0.10269 7.1874,-0.5625 0.2956,-1.63198 -0.4679,-4.05465 -2.5,-4.09375 -3.3074,-0.02 -6.5974,-0.59926 -9.875,-1.375 -0.4852,-0.20291 -0.9574,-0.43173 -1.4374,-0.65625 0.5515,0.2168 1.1972,0.24281 1.9374,0 16.6664,2.57316 33.3674,5.84923 49.1563,11.625 -4.5901,-1.28773 -9.1815,-2.52094 -13.875,-3.375 -4.6728,-1.68412 -5.5458,7.86165 -0.5937,7.28125 16.4996,6.08773 32.9079,12.92732 47.7187,22.3125 0.3363,0.0955 0.6784,0.17062 1.0313,0.25 3.2314,3.70457 5.971,8.05093 10.125,10.375 2.4521,0.73547 0.9482,-3.87293 2.9687,-4.75 0.7054,-1.02085 1.5574,-1.83112 2.5,-2.46875 2.1357,1.12197 3.8402,2.84632 4.75,5.625 1.0307,3.9032 -0.3059,8.22022 -0.1563,12.1875 -0.8286,-0.49262 -1.7467,-0.91387 -2.7812,-1.1875 -7.0444,-4.32433 -13.7933,-9.16943 -21.125,-13 -4.0137,-3.01437 -7.5101,5.84259 -2.5938,6.78125 11.939,9.10537 23.6338,18.71642 33.9688,29.5625 0.7067,1.19147 1.5775,2.30363 2.7188,3.28125 5.3016,5.98148 2.3442,14.40852 5.375,21.34375 2.19,7.97995 4.6998,16.0283 5.9374,24.15625 1.7371,1.01262 3.6902,2.21895 5.4688,3.59375 -0.4145,3.12658 -0.824,6.26804 -0.1562,9.375 0.1867,2.75917 0.3983,5.53556 0.5937,8.3125 -2.8425,1.9302 -5.7473,3.68657 -4.375,7.90625 1.1553,9.81919 -1.4408,19.47907 -1.4687,29.09375 -0.1464,2.53646 1.7638,3.94675 3.75,3.65625 -1.2723,1.02096 -2.0508,2.46149 -1.7813,4.8125 -0.534,6.4063 -2.6117,12.41792 -4.5313,18.4375 -0.2255,-1.1787 -0.7752,-2.23817 -1.7187,-3 -0.201,-0.0456 -0.424,-0.0456 -0.625,0 -5.2724,0.63782 -7.0773,10.74356 -1.9063,12.125 0.7814,-0.3923 1.4823,-0.96452 2.0938,-1.6875 -0.1916,0.77336 -0.402,1.56478 -0.5625,2.34375 -0.9133,3.46241 2.6376,5.54698 5.5,3.5625 0.8597,-0.54839 1.6145,-1.18456 2.2813,-1.875 3.2715,5.35384 7.3025,12.81394 1.6874,17.875 -3.3236,5.60249 -12.9536,0.10321 -14.2812,7.8125 -3.5494,9.14977 -10.3422,16.32187 -14.8438,24.71875 -1.8469,3.02712 0.9462,6.09268 4.25,5.0625 7.0982,-1.91401 9.9096,-9.52529 15.4063,-13.75 30.277,-32.15249 52.2981,-75.33966 50.3125,-120.90625 -2.3824,-9.02607 -3.5042,-18.28026 -5.9688,-27.28125 -2.1076,-5.01046 -4.7597,-9.80829 -7.8437,-14.34375 -1.1474,-8.92388 -3.1285,-17.74229 -6.0625,-26.375 -4.8016,-7.94653 -8.4709,-16.50855 -13.3438,-24.40625 -1.9923,-2.43592 -4.1535,-4.75559 -6.4374,-6.9375 -1.4008,-2.86203 -2.8832,-5.69597 -4.5,-8.46875 -6.2866,-6.8324 -11.5908,-14.51087 -17.9376,-21.28125 -11.625,-9.49634 -26.241,-15.45973 -40.8437,-18.28125 -8.5013,-1.5746 -17.3433,1.09715 -25.7187,0.21875 -5.9644,-2.30875 -10.9326,-8.06648 -17.9063,-6.3125 -8.1755,-0.41002 -16.3343,-1.41634 -24.5313,-1.25 -3.9445,-0.57856 -4.0635,5.46654 -1.5,7.0625 -9.6832,-4.65885 -18.4532,-13.17299 -29.4062,-11.375 -1.6139,1.05015 -4.8692,0.84405 -1.5,2.5 0.3165,0.52262 0.6644,0.982 1.0312,1.4375 -4.9651,0.28155 -10.0748,-0.26141 -15.0937,-0.46875 -0.5782,-0.93042 -1.539,-1.70957 -2.4375,-1.8125 -9.2906,0.39796 -18.8712,-4.53124 -28.0625,-4.5 z m -115.25004,13.03125 c -1.37517,1.24557 -2.82662,1.87166 -4.34375,2.09375 1.43373,-0.71573 2.88196,-1.42796 4.34375,-2.09375 z m 256.68754,13.1875 c 4.1728,0.0505 8.0104,1.04958 10.3438,5.15625 1.0741,2.17652 1.3475,4.6758 1.5937,7.15625 -0.051,-0.0158 -0.1052,-0.0152 -0.1563,-0.0312 -5.3858,-3.44918 -9.1293,-10.08152 -16.3124,-9.75 -2.392,-0.61176 -4.7778,-1.26729 -7.1563,-1.9375 3.5815,0.13563 7.7755,-0.6411 11.6875,-0.59375 z m -40.125,3.96875 c -1.1313,4.17146 4.1544,5.07751 6.9375,5.90625 9.2977,4.23464 16.9961,13.74267 27.4687,14.125 0.7411,-1.46746 0.6585,-4.00661 -1.2812,-4.65625 -11.5938,-3.71566 -20.8498,-14.53869 -33.125,-15.375 z m -248.15629,4.25 c -0.10748,1.7136 -0.0443,3.5317 -0.34375,5.21875 -1.14124,-0.0925 -2.27617,-0.3701 -3.34375,-0.8125 0.359,-0.45222 0.6783,-0.92897 0.96875,-1.4375 0.89038,-1.00558 1.78689,-2.01409 2.71875,-2.96875 z m -19.21875,31.71875 c -0.27055,2.39 -1.16594,4.67827 -2.78125,6.34375 -1.44306,1.73923 -3.43897,2.73401 -5.5625,3.0625 2.59684,-3.28144 5.39107,-6.42048 8.34375,-9.40625 z m 150.03124,9.25 c -18.165,-0.0439 -36.3202,4.96153 -50.0312,16.5 -0.8774,2.4579 -1.4763,3.46336 1.5312,3.25 0.8305,0.25757 1.6014,0.63132 2.375,1.0625 -5.011,2.53142 -9.7453,5.53135 -14.0937,9 -0.01,-0.13755 -0.029,-0.2694 -0.031,-0.40625 -0.2181,-1.44607 1.2236,-3.97538 1.0938,-4.59375 -6.5937,-0.3428 -12.6335,6.18841 -13.7188,12.25 0.5525,0.89378 1.3381,1.90877 2.2813,2.875 -1.5756,1.90841 -3.0498,3.93565 -4.4063,6.03125 -0.08,1.41988 -0.1923,2.38447 0.1563,2.8125 -2.2075,2.49619 -4.25226,5.14041 -6.09379,7.90625 -0.5015,-1.01586 -1.56956,-1.74065 -2.90625,-2.125 -5.77813,-1.23078 -7.85992,6.19066 -8.84375,10.5625 -2.19606,6.59944 -3.16043,13.48105 -3.59375,20.4375 -1.31122,2.2838 -2.0651,4.98221 -2.1875,7.625 -3.92641,1.9084 -3.81396,8.34129 -3.5625,12.28125 -0.17136,4.8901 0.26524,9.73595 1.0625,14.53125 -3.55139,2.62165 -2.16173,8.97745 -1.125,12.8125 2.37964,14.26831 9.79853,27.06266 16.5,39.71875 7.5354,9.91806 18.08974,17.54112 27.93754,25.28125 10.1068,7.15475 22.1815,10.93152 33.2812,16.03125 1.4244,1.25316 2.9452,2.29139 4.5626,3.125 0.6048,0.97988 1.5474,1.71371 2.7812,1.90625 9.4357,5.60113 17.0793,14.70213 27.5625,18.15625 4.5831,-0.92687 0.8226,-6.71196 -1.9687,-7.8125 -3.214,-1.53248 -6.0368,-3.55548 -8.7188,-5.78125 1.1441,0.46454 2.2915,0.95481 3.375,1.5625 1.4138,0.50913 3.4531,0.35784 4.9375,-0.375 -0.2912,2.72278 1.9477,6.12469 5.0313,5.65625 10.569,2.53336 20.4084,8.93702 31.375,9.09375 3.5864,-1.98084 0.1093,-5.58959 -2.8126,-6.625 8.8378,1.21923 17.7113,3.7729 26.4688,2.125 3.5775,-3.04338 -2.3898,-6.34869 -5.3438,-5.96875 -10.945,0.62949 -20.8697,-4.89856 -31.8437,-4.4375 -1.6654,1.1462 -1.7418,3.1664 -0.9375,4.875 -6.5257,-2.77385 -12.7244,-6.41606 -19.9062,-7.5625 -0.067,0.0287 -0.1238,0.0621 -0.1876,0.0937 -0.04,-0.50748 -0.1889,-1.0752 -0.5624,-1.6875 -3.8252,-7.29719 -13.0005,-7.47373 -20.3126,-8.84375 -3.3134,-6.73875 -12.2275,-8.40575 -18.6562,-11.25 -1.6904,-0.32627 -3.5688,-0.66052 -5.4375,-1.09375 -0.2934,-0.17479 -0.6,-0.30826 -0.9063,-0.46875 0.8154,-0.47028 1.3135,-1.38107 1.2188,-2.875 0.013,-8.7433 -9.0784,-13.3678 -14.9375,-18.4375 -5.8515,-3.13578 -14.3852,-6.95287 -12.9063,-15.0625 0.9282,-6.76029 -5.9951,-10.57226 -8.2812,-16.34375 -8.42702,-13.82592 -16.22135,-29.20341 -19.18754,-45.21875 2.87177,0.0192 5.44235,-1.05533 6.09375,-4.21875 1.27966,-5.21047 -4.48915,-7.21475 -6.5,-10.90625 -0.40372,-0.54853 -0.58862,-1.45582 -0.71875,-2.34375 0.10149,-1.55875 0.24765,-3.12437 0.46875,-4.6875 0.2535,-1.60802 0.70929,-3.12141 1.28125,-4.59375 3.87511,2.56885 10.2419,4.63405 12.40624,-0.4375 0.3303,-0.69963 0.4801,-1.36479 0.5313,-2 2.3597,0.12433 4.6902,-0.0739 6.8125,-1.5625 6.4774,-3.2297 9.031,-10.52594 14.7187,-14.75 3.1477,-2.75487 4.5852,-6.62765 6.1875,-10.28125 2.1935,-1.87386 4.3835,-3.82037 6.875,-5.28125 5.6056,-0.94382 12.2927,0.2692 14.4375,-5.9375 -0.05,-2.35564 -1.6792,-4.24289 -2.8125,-6.34375 6.0075,-3.70488 15.1118,2.53973 20.0313,-2.6875 1.3943,1.77242 3.8569,2.53662 6,0.5625 10.5339,-3.57993 22.1099,-3.15832 32.8438,-3.6875 0.2903,-0.61588 0.3595,-1.31282 0.25,-2 6.5473,0.6441 13.063,1.95044 19.3437,2.90625 0.5832,-0.78201 0.7292,-1.81642 0.5625,-2.8125 0.4292,0.12104 0.8548,0.24391 1.2812,0.375 -3.2689,4.87994 1.1482,12.69772 7.25,12.21875 5.189,3.53123 11.1478,5.28127 17.1876,6.6875 4.5882,4.58417 10.3318,7.48586 16.1874,10.125 0.2195,0.4063 0.473,0.77669 0.7188,1.15625 0.6686,1.84829 1.9669,3.45031 3.875,4.3125 3.5032,6.66175 9.1271,11.63237 14.75,16.5 2.2081,5.91318 2.6822,12.37568 0.625,18.59375 -6.7046,31.69182 -34.8923,54.55032 -64.6562,64 -1.6486,0.54504 -3.3224,1.02093 -5,1.46875 -0.6794,0.0858 -1.3528,0.17702 -2.0313,0.25 -2.1892,0.26181 -4.3939,0.40275 -6.5937,0.53125 -1.22,-0.20334 -2.4189,-0.4141 -3.625,-0.65625 -5.6625,-1.06747 -11.1763,-3.06118 -16.875,-3.5 0.3414,5.22258 6.3009,5.73602 10.75,6.75 1.8434,2.58667 5.4223,2.43228 8.8437,2.09375 1.4374,0.83651 3.174,0.84312 5,0.5 13.6112,1.57441 27.4564,0.69147 40.9375,-1.75 19.9363,-1.99183 39.8207,-9.13275 54.875,-22.5 8.8732,-8.06225 13.8542,-20.53221 9.8438,-32.4375 -1.262,-4.05147 -2.8611,-7.96602 -4.6876,-11.78125 0.9296,-7.00606 -0.3326,-14.15104 -4.5624,-20.1875 -1.1411,-1.71181 -2.3613,-3.38996 -3.625,-5 -1.2063,-5.13939 -3.725,-9.92971 -7.75,-13.75 -11.6706,-11.60459 -26.7909,-18.97389 -41.1876,-26.5625 -4.6421,-2.12914 -9.4881,-4.05636 -14.4374,-5.46875 -0.022,-0.006 -0.04,-0.025 -0.063,-0.0312 -8.2801,-4.73328 -15.587,-12.57519 -25.3124,-11.03125 -1.6493,1.4637 -1.9165,3.94614 -1.0938,5.78125 -6.4575,-0.94159 -12.8866,-4.02784 -19.2188,-4.875 -0.012,-2.34161 -0.5798,-4.84473 0.4376,-7.0625 0.4472,-1.7505 -0.7855,-2.83882 -2.6876,-2.59375 -5.8861,-1.07855 -11.9449,-1.67285 -18,-1.6875 z m -0.5,11.96875 c 3.2013,-0.24034 6.4402,1.48763 9.5938,2.875 -0.056,0.63022 -0.012,1.27465 0.1562,1.875 -6.6858,-0.68708 -13.3254,-1.39098 -18.9374,2.15625 -0.095,-0.27013 -0.1818,-0.54163 -0.2813,-0.8125 2.8822,-1.72274 5.3915,-4.05289 8.0937,-5.84375 0.4608,-0.12427 0.9129,-0.2153 1.375,-0.25 z m 221.5313,1.9375 c 2.9038,-0.0597 5.8329,1.06086 8,3 0.6577,1.82485 0.8695,3.86348 0.625,5.8125 -4.1733,-3.129 -9.0952,-5.06825 -13.8437,-7.21875 1.5895,-1.05711 3.4085,-1.55652 5.2187,-1.59375 z m -11.5313,11.25 c 0.3415,0.38772 0.6935,0.76524 1.0313,1.15625 3.0496,1.98193 7.2572,3.36391 10.8437,5.3125 -4.858,0.79515 -10.0132,-2.12243 -11.875,-6.46875 z m -166.4374,40.65625 c -15.217,-0.074 -31.4464,2.72452 -41.7813,14.6875 -14.4152,14.44575 -19.1815,37.42261 -11.4687,56.25 0.012,0.0302 0.019,0.0635 0.031,0.0937 1.2269,3.45336 2.937,6.95313 5.2188,9.875 0.027,0.0349 0.066,0.059 0.094,0.0937 4.3847,6.64134 11.0108,12.59782 19.125,11.59375 3.3858,-1.08427 -1.3542,-3.31602 -2.5937,-4.40625 -1.1831,-0.41903 -2.3593,-0.90032 -3.4688,-1.46875 -0.3266,-1.13853 -2.3147,-2.79438 -2.9688,-3.65625 -2.2343,-1.3415 -4.2724,-2.98609 -6,-4.875 2.001,-0.21717 -0.5649,-3.76113 -1.0937,-5.15625 -0.7273,-0.80284 -1.4008,-1.62698 -2.0313,-2.5 -3.3011,-13.38823 0.7415,-27.17066 8.375,-38.5625 0.033,-0.0412 0.061,-0.0839 0.094,-0.125 2.4525,-3.05425 5.2136,-5.87585 8.1875,-8.4375 7.5881,-4.93794 16.4035,-8.2184 25.0625,-9.625 4.6668,-0.991 9.7134,-2.11288 14.625,-2.09375 2.7928,4.09007 4.6396,9.11424 6.75,13.25 1.3121,2.68717 0.6511,8.84574 4.5938,8.90625 0.2952,-0.46723 0.5291,-0.94466 0.7812,-1.4375 0.057,3.04353 -0.5832,7.09221 2.5625,7.78125 1.045,-1.09111 1.9209,-2.33623 2.6875,-3.65625 -0.086,1.45261 -0.1705,2.88555 -0.1875,4.25 -0.09,2.98707 -3.524,8.0346 -0.062,10 11.8764,-6.58515 15.8248,-26.99243 3.6875,-35.875 -0.9456,-0.77665 -1.9773,-1.44092 -3.0625,-2 -2.0512,-3.75799 -5.2454,-6.77592 -9.5938,-8.28125 -0.5799,-0.23857 -1.1779,-0.45782 -1.7812,-0.625 -2.3688,-1.93334 -5.2169,-3.27954 -8.5,-3.71875 -1.3986,-0.26899 -2.8286,-0.3322 -4.25,-0.25 -1.0034,-0.0288 -2.0168,-0.0263 -3.0312,-0.0312 z m 207.4687,15.71875 c 1.1487,2.43487 1.4183,5.2461 0.25,7.96875 -0.4049,1.20925 -1.0283,2.22611 -1.7813,3.09375 0.627,-3.67437 1.1363,-7.36431 1.5313,-11.0625 z m -346.65629,28.84375 c 2.36476,11.43077 7.73396,22.42013 12.5,33.1875 5.46831,10.87304 14.07859,19.84796 21.40629,29.40625 -14.0803,-13.18599 -27.30275,-28.83332 -32.46879,-47.53125 0.0994,-1.20522 0.18007,-2.40858 0.21875,-3.59375 -0.19947,-1.18274 -0.7844,-1.93447 -1.5625,-2.375 -0.10632,-0.60608 -0.22375,-1.2315 -0.3125,-1.84375 -0.31724,-2.46082 -0.17977,-4.86484 0.21875,-7.25 z m 327.31259,2.53125 c 0.1208,0.16532 0.229,0.33221 0.3437,0.5 -0.1036,2.1066 0,4.22611 0.8437,6.375 0.3115,1.27468 0.3889,2.49733 0.3126,3.6875 -0.081,0.1515 -0.1586,0.31658 -0.25,0.46875 -0.8463,3.37412 -4.2454,4.28489 -7.125,5.5625 4.3717,-4.39952 4.2505,-10.84787 5.875,-16.59375 z m -108.5,6.5625 c -1.3437,4.11916 -3.5963,7.91196 -6.875,11 -15.2208,18.00226 -38.4831,26.1717 -61.9688,26.78125 11.3583,-2.79915 22.3362,-7.27007 32.75,-12.75 13.458,-5.77477 26.1052,-14.17437 36.0938,-25.03125 z m 111,0.375 c -0.032,0.80192 -0.166,1.60984 -0.4688,2.4375 0.05,-0.82397 0.1901,-1.65177 0.4688,-2.4375 z m -127.5626,0.71875 c -8.5308,10.99536 -20.0879,19.43788 -32.9062,25.3125 6.0286,-3.69707 11.8201,-7.8595 17.3125,-12.34375 5.5341,-3.83194 10.7839,-8.16992 15.5937,-12.96875 z m 92.5626,58.5625 c -10.9722,2.69502 -14.181,15.71191 -23.4688,21.0625 -4.8407,6.45737 -10.9441,12.53275 -19,14.3125 -4.5824,2.20651 -10.142,10.55414 -4.5,14.28125 0.7289,0.0601 1.4237,0.0747 2.125,0 -5.4922,4.44505 -11.8498,8.03362 -19,8.15625 -4.9298,1.25074 -12.0377,8.31868 -7.25,13.09375 6.2823,1.82391 12.5864,-2.35966 18.5938,-3.5625 17.1401,-6.37653 32.7826,-18.14202 42.5937,-33.375 -1.1703,-1.58465 -3.4025,-2.06888 -5.2813,-2.375 -0.043,0.002 -0.082,-0.002 -0.125,0 5.5422,-5.18667 10.4488,-11.05654 14.4376,-17.4375 -0.1913,1.94473 0.3758,3.75545 2.125,4.625 4.2938,-1.1653 7.8654,-7.79869 4.9062,-11.375 -0.1879,-0.0847 -0.4189,-0.1297 -0.625,-0.125 -1.1036,-0.0884 -2.1232,0.25209 -3.0312,0.875 1.1433,-2.23911 2.2155,-4.54345 3.125,-6.875 -1.4621,-1.32016 -3.7229,-1.35503 -5.625,-1.28125 z m -360.00009,50.71875 c 2.22266,-0.14335 4.47413,0.38658 6.40625,1.8125 -0.6862,-0.0341 -1.43529,0.29228 -2.21875,1.1875 -3.35872,2.43417 -7.86159,2.17062 -11.75,0.53125 1.96544,-2.04346 4.72948,-3.34853 7.5625,-3.53125 z m 338.06249,4.46875 c -4.4773,0.23575 -8.8789,6.71665 -5.4374,9.96875 4.4483,0.18253 9.7133,-5.07229 7.875,-9.375 -0.1568,-0.13741 -0.3321,-0.25488 -0.5313,-0.3125 -0.6204,-0.24994 -1.2666,-0.31493 -1.9063,-0.28125 z m -49.8124,15.3125 c 0,0.006 0.023,0.0279 0.031,0.0312 0.01,-0.004 0.039,-0.015 0.031,-0.0312 -0.027,0.003 -0.06,-0.006 -0.062,0 z m 20,1.375 c -8.7873,0.40968 -16.5252,7.44587 -25.5626,7.59375 -7.2906,3.30054 -15.5107,5.63204 -23.4687,3.28125 -5.0828,-0.29262 -13.9141,4.31545 -10.6563,10.3125 5.5196,3.63269 12.74,1.55571 18.8438,2.21875 18.2402,-0.91676 36.5633,-7.42771 50.25,-19 -0.6793,-1.86405 -2.6884,-3.01687 -4.4062,-3.875 -1.7133,-0.46324 -3.3728,-0.60712 -5,-0.53125 z m -7.125,88.125 c 2.4385,-0.0128 4.8692,0.83128 6.5937,2.53125 -3.0457,-0.0118 -6.2351,-1.26066 -9.3437,-2.125 0.8944,-0.24829 1.8216,-0.40138 2.75,-0.40625 z m -99.375,20.40625 c 2.8998,0.14122 5.8219,0.35061 8.75,0.53125 -2.4065,0.38236 -4.8112,0.79181 -7.1563,1.34375 -0.2066,0.36654 -0.3239,0.74567 -0.4063,1.09375 -0.5126,-0.90337 -0.8532,-1.9434 -1.1874,-2.96875 z"
       id="path3023"
       inkscape:connector-curvature="0" />
    <g
       id="g3163"
       transform="matrix(0,-1,1,0,-58.503446,2386.5557)">
      <path
         inkscape:connector-curvature="0"
         id="path3023-9"
         d="m 1880.5938,191.46875 c -12.4057,2.93092 -25.4821,4.91699 -36.3438,12 -6.966,0.81769 -13.5895,3.6653 -19.2159,7.57124 -3.4238,1.18596 -6.4868,2.5048 -9.4403,-0.19624 -10.6291,-3.2905 -18.8892,6.68409 -27.6563,10.6875 -5.1922,2.99217 -9.8193,7.90624 -12.9375,12.4375 -6.1719,-2.25871 -13.9838,-2.91818 -18.3343,3.10949 -6.1092,6.54735 -15.4176,9.7105 -19.4469,18.26551 -1.6638,2.28938 -2.8375,6.07693 -6.4376,4.5 -5.7397,-1.28705 -12.2875,0.39924 -14.875,6.0625 -7.2404,8.53863 -14.4345,17.51959 -18.1697,28.08632 -4.7012,4.81765 -8.2366,10.78401 -10.1115,17.10118 -2.0992,2.37973 -2.666,6.79771 -6.75,6.25 -9.1973,1.44032 -10.4113,11.89983 -13.7188,18.8125 -2.8639,7.79213 -6.3623,16.56255 -4.875,24.75 -7.3731,1.19523 -13.6382,7.58856 -12.875,15.34375 -1.7829,10.94198 -6.1862,23.61523 -0.2187,33.9375 1.5308,1.63499 5.2682,1.60858 3.375,4.625 0.292,7.70323 -8.1279,11.6658 -7.1563,19.4375 1.1543,8.90145 2.3184,17.6445 1.9376,26.6875 0.3621,29.0187 5.1196,58.01483 15.9146,85.03128 9.8251,26.84098 24.2551,51.79225 41.9604,74.18747 3.948,7.9362 7.1737,20.09677 17.7812,20.625 2.6535,-1.40882 4.8362,0.17788 5.9375,2.53125 1.5138,1.7466 6.2371,2.72491 2.5937,4.875 -4.1737,4.67068 -3.1522,12.56925 2.6876,15.375 14.3266,11.96657 32.3977,23.54104 51.8437,21.09375 1.9154,-3.16189 4.1921,-0.81213 6.7813,0.21875 2.7325,0.7692 -1.5241,4.49153 -0.5938,6.84375 -0.5728,8.59939 9.6547,9.94708 15.625,12.5625 11.0366,4.00274 23.1398,5.8457 34.625,5.75 4.6003,8.268 15.5581,6.10667 23.375,8 6.0529,0.66317 12.5143,-0.16016 18.3438,0.21875 4.5399,8.68914 15.963,5.23605 23.8124,5.5 15.0805,-0.95683 32.1773,-4.51736 41.9688,-16.9375 0.9843,-2.31525 -0.7131,-4.43267 -1.625,-6.40625 1.5536,2.61815 5.5101,1.90932 7.3438,2.6875 -0.3815,6.94942 7.1568,13.65214 13.8673,9.97382 14.0565,-3.8949 28.2588,-9.72155 39.0701,-19.56757 8.6129,4.05522 16.0595,-4.45209 23.2794,-7.88342 12.4856,-8.14568 25.8639,-19.42945 27.5956,-35.11658 -2.6465,-7.49299 -11.5445,-4.69027 -17.4374,-5.21875 -7.5217,-2.1454 -19.6822,1.82569 -18.0313,11.375 0.5506,4.95033 -7.3078,8.30976 -9.2813,3.09375 -4.8533,-5.88112 -14.6252,-5.23942 -18.7676,1.15443 -6.9473,7.72431 -15.7998,13.75469 -25.7011,16.65807 -3.7596,-4.68098 -11.2309,-4.80216 -16.1563,-1.375 -7.1303,4.85113 -14.8761,10.54828 -23.7187,10.625 -7.5881,-3.84124 -16.3759,0.30937 -24.25,-2.5625 -9.1251,-1.57466 -19.0141,-0.76854 -27.2813,2.8125 -1.8713,-1.29714 -4.988,0.26646 -4.5937,-3.25 -5.6965,-9.45668 -18.4751,-6.36208 -27.0625,-11 -20.0678,-6.85851 -37.6216,-20.28447 -58.0295,-26.09753 -3.8278,1.50917 -2.5046,-5.30822 -4.8767,-6.80872 -5.7347,-8.63697 -17.3944,-8.26697 -24.75,-14.6875 -5.6628,-1.87741 -3.9634,-8.85373 -7.9376,-12.46875 -5.5085,-6.503 -12.2369,-12.35561 -19.8124,-16 -6.6656,-8.3897 -9.4623,-19.24041 -16.5,-27.46875 -6.3552,-10.76942 -8.9922,-24.58904 -18.4063,-33 2.5599,-5.99581 2.6156,-12.87671 -1,-18.5625 -4.1148,-5.93294 -7.0941,-12.2847 -8.6839,-19.28413 0.607,-3.7776 3.6632,-8.1088 2.7152,-12.62212 -1.3531,-7.6892 -1.506,-16.18174 -6.0626,-22.65625 0.3742,-11.08292 5.1726,-22.00104 3.9063,-33.40625 -1.2243,-6.44926 4.6002,-11.13545 3.6563,-17.59375 0.2516,-4.56119 -1.9581,-9.2849 1.25,-13.15625 2.037,-3.9015 -1.2865,-9.12606 3.5937,-11.15625 6.648,-7.09448 8.4679,-17.21709 10.625,-26.28125 -0.1474,-3.36796 -4.1972,-6.10536 -0.375,-8.875 8.0889,-9.70212 17.7863,-17.98946 27.4371,-26.15595 12.2717,-9.88766 26.4017,-17.73938 38.1879,-28.1878 2.0803,-3.99745 6.1623,-6.73431 10.75,-5.3125 13.7099,-1.09925 27.4753,-4.53572 39.7813,-10.5625 1.3151,-1.97748 2.1687,-2.90126 4.3437,-1.1875 11.8977,4.71662 24.1717,-2.15433 36.3437,-0.78125 5.6182,-0.13469 9.1727,-6.1124 14.8438,-4.75 4.9091,-0.6924 9.7877,0.15342 14.0625,2.4375 6.8622,0.58659 13.6239,-1.69855 20.375,0.46875 5.1096,0.50976 10.7668,-1.19326 14.7813,2.65625 5.8876,2.23831 12.9744,0.0108 17.875,4.8125 7.4894,3.6429 16.9648,3.61662 24.125,-0.21875 2.496,0.56604 4.3693,2.12689 2.1562,4.34375 -1.5613,6.62402 4.7635,11.69807 10.7188,12.5625 10.1515,4.45419 18.4046,15.87898 30.625,13.875 2.7381,-1.9174 4.1814,3.35843 6.5624,3.84375 3.6926,1.85188 3.5958,5.96739 5.3438,8.96875 6.3963,6.35007 15.4563,10.46164 18.6587,19.56292 3.0376,7.62624 9.9582,12.79815 17.4038,15.46833 2.6116,-0.64822 4.9402,1.93607 3.9687,3.9375 -7.4997,1.37792 -7.9131,11.84627 -3,16.375 5.862,10.18177 5.4832,24.63161 16.2813,31.40625 0.066,2.65312 0.7794,5.61113 0.625,8.0625 -6.6158,3.98953 -3.5611,12.28989 -3.6875,18.53125 -0.1982,9.19188 -4.1513,18.95169 0.2188,27.71875 -1.042,3.59785 -0.072,8.89871 -2.875,11.5 -10.0581,2.24334 -12.029,17.42062 -4.0626,23.15625 1.1685,3.41432 5.059,4.84494 8.125,5.4375 -1.5006,3.05861 -2.2179,8.11714 -6.4687,7.5625 1.2328,-8.22644 -10.2585,-10.5271 -15.9375,-7.375 -11.0258,5.11564 -15.714,17.4253 -25.2188,24.5625 -4.5293,6.51974 -12.1002,8.84133 -18.625,12.65625 -5.1372,3.64283 -7.9747,10.65312 -6.0312,16.78125 -7.9844,3.08967 -18.8523,3.2229 -22.6562,12.40625 -1.8905,3.71677 -1.7378,8.43926 0.625,11.9375 -8.6098,3.07485 -17.6658,5.21671 -26.6876,3.28125 -4.631,0.0957 -8.4595,3.44325 -11.9687,5.6875 -8.0906,-3.1007 -19.8673,-2.90091 -24.4687,5.625 -0.414,4.30076 -5.1765,-0.18827 -7.4083,-0.51216 -7.3217,-4.62267 -18.4731,-5.19485 -23.873,2.51216 -2.2117,1.36769 -0.4473,7.47412 -3.924,4.7687 -8.1225,-2.71237 -15.6364,-6.68114 -21.201,-13.2687 -7.4794,-5.66574 -22.2707,-2.31683 -22.0313,8.5 3.9,12.30631 17.0917,17.84841 27,24.375 14.3339,7.07813 31.2324,13.11146 47.1876,8.84375 3.1137,-2.0285 2.4661,-6.72657 2.3437,-9.25 2.924,0.9237 8.8815,-0.62167 6.7187,3.96875 0.397,10.29956 15.0713,11.83578 20.9376,5.15625 2.0314,-2.01986 3.2318,-5.01737 2.5937,-7.875 2.865,0.21308 7.7021,-2.0992 9.4687,-1.03125 0.3832,8.98352 11.459,12.65729 18.9376,10 44.4205,-5.44311 89.4298,-22.4141 119.7512,-56.44092 11.5743,-13.24721 19.6751,-29.44072 24.3738,-46.30908 0.4183,-7.40341 3.7781,-13.67087 7.125,-20.125 8.0637,-17.34098 9.9634,-36.4617 10.0624,-55.375 1.214,-13.7588 1.1674,-28.00806 -1.9374,-41.46875 -3.9064,-10.84363 -9.7538,-21.05345 -13.673,-31.80284 -4.5019,-6.74791 -7.0243,-14.47154 -7.6396,-22.50966 -4.5088,-18.95375 -15.6776,-35.36916 -27.0532,-50.85119 -10.6019,-15.58383 -23.2016,-31.45599 -41.4231,-38.3362 -7.4627,-3.3455 -15.3986,-5.58752 -23.4299,-7.09386 -10.1067,-16.09851 -20.8453,-34.63897 -39.5312,-41.5625 -4.2062,-0.81014 -8.3821,4.20537 -12.1563,1.96875 -3.5626,-8.18655 -6.4342,-21.18365 -17.4375,-21.6875 -7.4886,-1.0338 -10.7013,7.64892 -9.0625,13.5 -1.755,3.33624 -5.4622,1.06069 -7.625,-0.4375 -4.2628,-2.20489 1.8896,-5.2455 2.8125,-7.8125 4.2256,-5.73997 -0.9827,-12.70074 -7.0938,-13.90625 -9.2509,-2.12814 -18.4558,-6.76761 -28.125,-3.71875 -4.3307,-0.20385 -9.5398,5.63423 -12.6874,1.0625 -2.6709,-3.07375 -6.0658,-6.29834 -10.5,-5.59375 z m 30.0624,62.71875 c 1.9973,1.7513 5.9091,3.8411 6.6876,5.40625 -2.2581,2.005 -4.0059,-3.17052 -6,-4.1875 -0.093,-0.13579 -2.0746,-2.31292 -0.6876,-1.21875 z m -45.1562,2.59375 c 0.2614,0.93825 -4.4331,2.9105 -5.4062,5.03125 -1.8305,-1.07106 -4.3009,-2.00153 -1.0313,-2.6875 2.1356,-0.78567 4.2782,-1.74657 6.4375,-2.34375 z m 8.25,54.875 c -5.8157,0.45391 -11.6458,3.56124 -14.375,8.625 -3.1042,0.51704 -6.4743,5.33715 -9.2188,3.78125 -6.5355,-7.14015 -16.9914,-1.81676 -22.9374,3.375 -8.1888,6.48971 -14.6929,15.59484 -25,18.90625 -5.7988,4.51579 -8.8628,11.74018 -15.2813,15.5 -5.8569,6.85656 -9.2832,15.73306 -13.4375,23.28125 -10.6013,2.24921 -12.054,15.2303 -14.0312,23.96875 -0.7651,8.39106 -2.4738,16.69331 -6.7813,23.9375 -2.3323,9.104 1.9866,18.72694 -1.5,27.65625 0.06,15.26795 7.0147,29.61266 13.6563,43.03125 9.8586,18.68985 27.4426,31.90922 45.5416,41.99608 6.2634,3.52349 13.8664,4.9887 18.1771,11.25392 2.4757,3.05928 6.3226,1.52158 9.3437,2 9.0676,7.6143 18.9273,14.82419 29.6876,19.8125 3.9724,1.06795 9.2597,-0.0133 10.75,-4.34375 9.7993,3.41743 21.1692,10.51077 31.4687,5.15625 1.5269,-1.59475 1.6127,-4.46219 4.4279,-2.39334 7.107,1.25423 18.4078,2.28869 21.0096,-6.41916 1.2159,-8.45953 -9.0561,-13.07009 -16.1562,-11.375 -10.5264,-0.69886 -21.2197,-7.31294 -31.7188,-2.78125 -1.7552,2.66826 -3.8719,-2.08329 -6.4062,-1.53125 -4.8661,-0.56761 -8.258,-3.86542 -11.1563,-7.375 -6.2535,-5.07243 -15.8087,-2.93213 -21.0313,-9.375 -4.8878,-2.7014 -9.3074,-6.05348 -13.0937,-10.03125 -2.425,-1.31954 -5.8879,-0.30403 -6.0625,-4.09375 -1.886,-4.46265 -7.1809,-7.16724 -6.125,-12.46875 -0.5824,-7.43313 -7.1107,-12.14108 -10.375,-18.09375 -0.3483,-8.30953 -5.7668,-14.72821 -9.7188,-21.59375 7.3979,-12.22198 -0.7302,-26.24494 -4.0312,-38.21875 0.8002,-4.94597 6.184,-7.94121 5.9062,-13.46875 1.3007,-7.76737 -0.6665,-16.63087 3.1876,-23.71875 5.8401,-3.57161 6.0082,-11.86198 12.1562,-14.8125 6.703,-0.0377 14.8102,-1.96034 17.5,-9.03125 -0.1332,-4.19235 1.9917,-4.09902 5.75,-3.75 6.9687,-0.41267 13.9755,-0.38951 20.375,-3.65625 9.3894,-1.90021 19.473,0.37047 28.625,-3.125 3.4419,1.59868 8.6581,0.12661 11.25,2.53125 2.6231,8.88892 13.2257,10.44592 20.5625,13.65625 8.0504,1.77881 13.8343,7.82485 21.0625,11.28125 6.5813,5.73787 10.5568,14.50978 17.875,19.65625 5.8632,8.41246 0.5222,19.19296 -2.625,27.625 -1.3455,4.11997 -2.7125,5.55481 -2.5938,0.0937 -1.9048,-15.85531 -14.5395,-28.00819 -28.3437,-34.8125 -16.0026,-10.81545 -36.8654,-8.41569 -54.0367,-1.85468 -33.7858,11.72243 -46.4445,59.07478 -25.1508,87.10468 5.8099,9.1409 17.1987,15.69268 27.9375,12.5 15.2757,6.62581 27.6488,18.37413 43.4865,24.0386 18.7684,7.9321 41.5674,12.7938 60.701,3.3989 10.5823,-5.62256 16.9682,-16.90892 19.0625,-28.28125 3.6275,-6.72715 9.7022,-12.60202 9.2723,-20.89534 2.5185,-11.82239 4.9705,-24.13409 0.9631,-35.95205 -3.8279,-12.9569 -8.7301,-25.75776 -14.5471,-37.83161 -5.967,-9.53979 -10.2549,-19.73568 -14.4383,-30.071 -2.7476,-5.83988 -9.9522,-11.41521 -16.125,-9.09375 -0.6411,-2.72626 -3.78,-4.59246 -4.5937,-6.625 3.5,-3.42959 5.2742,-9.43879 1.0624,-13.25 -17.0587,-18.11285 -40.5267,-33.16907 -66.375,-31.9375 -3.6293,-0.88365 -6.7543,2.38897 -8.5312,4.125 -2.2724,-5.65616 -9.802,-6.30654 -15,-6.03125 z M 1903.9688,421.75 c 4.2212,-0.10993 8.9365,1.56977 9.375,6.3125 1.3522,4.44013 1.9467,9.60223 5.5624,12.78125 0.6571,3.59269 4.7579,5.36898 3.375,9.28125 -0.144,3.42636 2.428,6.45949 4.375,8.46875 0.4125,2.93157 -0.3726,4.67114 -2.5624,6.65625 -2.2948,3.09894 -1.7053,7.8886 -0.2188,10.5 -8.9623,4.82766 -19.583,11.41494 -29.875,6.71875 -9.78,-2.78093 -18.4799,-8.96453 -23.4062,-18 -3.2332,-3.8319 -8.516,-6.28953 -7.5313,-12.15625 2.4885,-14.39466 15.1425,-25.41491 28.9063,-28.875 3.9377,-0.92435 7.9504,-2.13092 12,-1.6875 z M 2025,580.90625 c 1.9054,2.8885 -5.2072,1.95047 -1.4536,0.51919 0.2703,0.36502 1.4142,-1.52781 1.4536,-0.51919 z m -17.9688,25.1875 c 1.257,2.12228 6.0036,3.15322 2.8438,5.6875 -2.192,3.6067 -5.6539,0.80553 -8,-0.875 -1.3876,-0.64501 -4.7394,-1.13703 -1.5625,-2.03125 2.2411,-0.41471 4.8051,-3.21203 6.7187,-2.78125 z"
         style="color:#000000;fill:#ff3333;fill-opacity:1;fill-rule:nonzero;stroke:#000000;stroke-width:0.25;stroke-linecap:round;stroke-linejoin:round;stroke-miterlimit:4;stroke-opacity:1;stroke-dasharray:none;stroke-dashoffset:0;marker:none;visibility:visible;display:inline;overflow:visible;enable-background:accumulate" />
      <path
         inkscape:connector-curvature="0"
         id="path3137"
         d="m 1878.7188,201.90625 c -12.0518,2.34468 -23.4228,6.9609 -34.7188,11.625 -10.2041,1.92579 -19.7955,12.49124 -30.75,7.28125 -7.6982,-1.84651 -12.6475,6.58216 -19.4688,8.6875 -7.403,4.79276 -12.7587,16.65832 -23.25,13.5 -4.8084,-2.15293 -8.1334,1.64949 -11.0937,4.71875 -6.6614,5.13448 -13.3269,10.19766 -17.1875,17.78125 -3.9565,4.9988 -10.7375,4.83492 -16.2812,4.125 -5.0251,3.9296 -7.9883,10.22482 -11.9688,15.21875 -7.5227,11.17748 -13.7454,23.15696 -20.1562,34.90625 -2.5658,4.92938 -8.1378,6.50603 -12.4376,8.90625 -3.7775,5.27187 -4.3962,12.15026 -7.625,17.78125 -2.5536,7.60859 0.5656,18.95427 -7.9374,23.3125 -3.3014,1.43804 -7.7481,3.08361 -6.5938,7.5 -0.8166,8.45154 -4.7937,17.17336 -2.125,25.53125 6.2745,5.17134 7.7961,14.3734 3.2812,21.15625 -3.0135,5.12551 -6.8633,10.92474 -4.2278,16.99326 2.1435,24.18247 0.9365,48.76205 7.2407,72.29205 8.9447,38.71683 29.0504,74.0998 52.4871,105.83969 2.1195,4.52871 3.4421,12.5653 10.25,11.40625 8.1098,1.41293 15.4853,8.73815 16.8438,16.75 0.4118,3.51668 -6.1066,6.77562 -1.7593,9.04196 11.1192,9.01702 23.9679,18.58553 38.9781,18.39554 7.1806,-1.84263 16.3194,-2.49568 20.875,4.65625 2.9633,3.47691 2.4724,8.77891 2.0937,12.5625 13.6641,7.01704 29.2094,6.66944 43.8437,10.03125 10.2926,9.51589 25.1312,4.42004 37.625,6.78125 5.5918,1.14076 9.2157,6.95057 15.3438,5.6875 13.3328,-1.46764 28.8331,-1.15958 39.1875,-10.9375 -0.6398,-3.21009 0.7456,-6.57056 2.9687,-8.875 -10.96,3.70903 -22.404,0.54006 -33.5937,0.15625 -9.1888,-1.4256 -18.6569,-1.83704 -27.2813,1.6875 -7.3099,1.62007 -14.0948,-3.04276 -17.7812,-8.9375 -6.4713,-2.98969 -14.1798,-1.87007 -20.6886,-5.47007 -20.9992,-7.89195 -39.7514,-21.38129 -61.4364,-27.52993 -5.0352,-3.18827 -3.797,-12.0699 -10.875,-12.65625 -10.4535,-4.03093 -23.0885,-9.25203 -25.8125,-21.40625 -7.0897,-11.62584 -23.4162,-14.93529 -27.6535,-28.83635 -8.5234,-14.08541 -15.8921,-28.84481 -23.2346,-43.45801 -4.8133,-5.23411 -7.7806,-12.54994 -5.1744,-19.51814 0.2661,-8.44418 -8.5303,-13.77816 -9.5312,-22.09375 -2.3712,-6.85926 -0.6709,-14.04019 0.9062,-20.75 -0.4369,-11.39711 -8.7485,-22.1442 -4.6945,-33.76483 2.3718,-9.58423 2.5169,-19.5371 3.3195,-29.17267 3.221,-6.80622 2.7207,-14.42315 3,-21.53125 1.7272,-8.03158 2.2182,-17.24927 9.1562,-22.78125 4.9397,-6.63624 5.9504,-15.31719 4.5,-23.21875 0.116,-9.59708 9.5894,-14.9005 15.1563,-21.40625 15.2164,-14.97949 33.4995,-26.2597 50.1913,-39.40714 6.193,-5.61384 12.7627,-12.62479 22.0259,-11.99312 14.8034,0.79397 28.2272,-6.04629 41.4078,-11.72474 6.7321,-0.24741 13.1775,4.49322 19.8564,1.40174 3.359,-0.71279 8.8601,-1.00074 10.9561,-1.58924 -8.8288,-2.68375 -9.6309,-15.81205 -1.5625,-19.9375 5.7827,-3.27647 15.5553,-6.29071 19.8437,0.8125 3.9851,5.03606 0.9705,13.9536 -3.6874,15.78125 7.953,-3.61146 16.6844,-1.59663 24.5312,0.65625 5.2648,0.8509 10.6966,0.0269 16.0312,0.0937 -6.8253,-3.7571 -13.1978,-13.18944 -7.4374,-20.5 6.0443,-7.36187 16.7558,-1.27029 21.4062,4.6875 4.5103,5.04115 3.4439,14.46068 -3.3125,16.9375 10.7148,2.5706 21.809,3.68505 31.6875,8.875 7.9532,3.34871 16.9131,-5.09711 24.8125,0.34375 4.9957,2.63124 5.2299,9.03962 5.2187,13.6875 7.8234,3.673 15.661,7.89213 22.1563,13.40625 6.821,2.24777 15.1915,0.0193 20.4063,6.25 5.9133,5.25468 8.0037,13.77841 15.3124,17.375 7.0568,5.37986 11.2516,13.25735 15.3126,20.84375 7.2415,5.40323 23.0757,8.14126 18.9374,20.75 -0.4662,3.21561 -4.1691,5.32309 -5.1874,7.59375 2.7126,5.44589 6.723,10.54397 6.9374,16.90625 1.7603,7.38266 7.4166,12.84846 11.4376,18.8125 3.0023,7.01741 -0.4018,14.425 -2.9159,20.78102 0.8189,8.85273 -0.6257,17.72355 -1.2017,26.40135 1.3849,9.7638 3.6724,24.02494 -6.9137,29.63013 -5.0191,1.32206 -3.5123,7.66962 0.3125,9.375 5.7368,2.46357 10.681,8.12326 8.7812,14.71875 -1.4922,9.4994 -13.8508,17.7624 -22.0937,10.59375 -2.668,-0.95933 -1.5902,-7.68031 -4.9375,-5.59375 -12.3556,7.2045 -17.7779,21.92234 -30.0625,29.46875 -4.1755,3.65436 -10.686,4.31617 -14.1875,8.5625 -1.6603,5.19151 0.139,12.45539 -5.875,15.53125 -5.3908,4.18594 -15.2241,1.92698 -18.2188,8.96875 0.8844,4.9077 2.5846,11.19426 -2.7812,14.3125 -9.2687,7.44515 -21.699,5.72403 -32.7188,6.5 -4.6009,1.06704 -8.1689,5.93836 -13.4687,4.4375 -5.1493,-1.20089 -11.8146,-3.12361 -15.0937,2.59375 -3.959,7.15561 -13.4095,5.75931 -19.2188,1.84375 -3.7596,-2.42528 -10.2374,-4.18795 -12.125,1.4375 -1.841,8.54933 -12.5222,8.75152 -18.7188,5.03125 -6.8563,-2.27798 -12.6455,-6.37781 -17.6874,-11.5 -1.5846,-1.60198 -5.8701,-3.34085 -7.4063,-1.71875 10.9637,12.97886 27.6452,19.51235 43.5313,24.21875 3.8316,0.51056 9.4761,2.14282 12.5312,-0.25 2.568,-11.84746 21.0752,-12.79534 25.7812,-2.0625 1.193,1.96146 0.9314,7.98151 4.1563,4.90625 2.3812,-2.57371 1.3745,-6.96715 5.1875,-8.6875 7.5271,-6.44017 22.377,-4.44054 24.8125,6.25 3.2606,2.71767 8.1503,-0.49744 12.0184,-0.0663 10.1887,-1.66521 20.1983,-3.75388 30.1379,-6.49618 -8.2858,0.9788 -19.3153,-4.31312 -20.0313,-13.40625 -0.076,-6.77905 6.0988,-10.83706 11.875,-12.46875 12.0033,-6.11374 25.4564,11.4518 16.5313,21.34375 -1.0883,1.79265 -7.4764,4.5703 -2.9841,2.97954 36.1557,-10.83132 71.3256,-32.88494 88.4528,-67.63579 6.359,-13.00192 8.125,-27.89411 14.7187,-40.9375 10.6963,-23.1584 9.4637,-49.44403 9.8438,-74.4375 -0.2685,-20.71328 -13.5424,-37.59438 -20.1875,-56.53125 -4.2362,-12.60148 -5.5723,-26.20496 -13.0991,-37.53672 -9.3509,-15.47614 -19.7723,-30.44229 -31.7134,-43.96328 -10.9369,-11.75632 -26.0721,-17.59328 -41.375,-21.1875 -9.9191,-2.71267 -12.5766,-14.03623 -18.7304,-21.00623 -5.6155,-7.87015 -12.522,-16.64061 -21.8008,-19.58752 -7.2404,3.59445 -17.7439,2.00213 -20.625,-6.46875 -2.3714,-4.27456 -2.2477,-10.28546 -6.5313,-13.25 0.2335,7.02468 -4.3279,14.68409 -12,14.5625 -10.228,0.98823 -21.1257,-10.74092 -14.7813,-20.375 1.8527,-2.03578 4.3906,-4.22174 -0.2236,-4.52191 -8.914,-3.68254 -19.2437,-5.04507 -27.9951,-0.57184 -6.6718,1.74711 -13.7567,-1.50155 -17.5625,-6.71875 -0.8094,0.0607 -1.6022,0.3734 -2.4062,0.5 z m -2,119.5 c -10.7368,0.43725 -15.8993,15.11044 -27.5,12.65625 -3.8031,-0.93535 -8.0874,-5.81422 -11.5626,-1.5625 -11.2941,7.28587 -19.7992,18.5443 -31.9118,24.72083 -7.4713,7.93002 -15.7765,15.3882 -19.7756,25.87292 -2.6847,5.97705 -7.6566,10.48214 -12.6876,14.25 -5.8229,10.51494 -2.586,23.58212 -9.0937,33.875 -3.7571,10.43236 -1.0705,21.65577 -2.3558,32.46857 0.535,14.54663 7.3173,28.1069 15.0433,40.25018 10.9564,16.95646 28.0949,28.33496 46.0049,36.85015 5.1837,1.95444 8.9861,6.75503 13.8918,8.5693 10.3833,0.68513 16.5159,10.69884 25.2595,15.14305 3.4103,1.71869 7.6727,6.56318 11.125,2.15625 0.7734,-1.45161 6.2889,-1.70451 3.2188,-2.4375 -5.9137,-1.75976 -10.4586,-6.09837 -15.0938,-9.65625 -7.3888,-2.14966 -15.4262,-3.78869 -21.0422,-9.70398 -7.3053,-6.42182 -17.4208,-9.6392 -21.7798,-18.8872 -3.836,-5.07607 -4.6882,-11.51197 -6.678,-17.22132 -4.3502,-4.6951 -7.8243,-10.06503 -9.0937,-16.375 -2.1366,-8.33837 -10.8604,-15.09219 -8.0937,-24.53125 2.8265,-5.98287 1.8407,-12.61726 -0.7114,-18.47299 -3.5335,-8.38574 -6.3035,-18.91798 0.086,-26.74576 4.4008,-7.48933 -0.2514,-16.33348 3.3437,-24.125 2.5276,-8.01754 7.9512,-14.75564 13.1563,-21.15625 4.4262,-4.77006 11.0866,-6.1855 17,-6.875 3.046,-4.34495 4.8671,-11.02404 11.375,-11.1875 7.1263,-1.23818 14.7343,0.667 21.25,-2.96875 12.3289,-2.65145 25.1621,-2.14348 37.5937,-3.59375 7.8594,0.18246 14.2666,5.4578 18.625,11.40625 9.3282,5.36647 20.7177,6.41656 29.2258,13.46299 11.313,7.75207 19.8337,18.94111 27.9929,29.66201 6.5788,13.24995 -0.3533,28.36475 -6.8437,40.1875 -6.6928,7.43742 -20.2456,-0.0631 -18.5937,-9.65625 -2.5297,-16.53236 -18.8127,-26.64602 -33.5938,-31.28125 -23.8801,-6.11004 -53.1781,6.37283 -61.0625,30.59375 -6.4834,17.90076 -2.6428,41.07606 13.6563,52.375 7.3844,2.70368 16.4812,-0.78895 22.8039,5.15555 22.0864,13.01008 44.8587,29.08694 71.6335,28.09445 12.477,-0.0839 26.1509,-7.04301 29.1134,-20.18165 2.5797,-8.55411 8.2373,-15.89935 10.8242,-24.25585 4.5571,-16.47824 3.1869,-34.33267 -4.2188,-49.75 -7.5177,-17.85847 -16.7162,-35.05385 -25,-52.4375 -4.8711,-2.64497 -12.1088,-1.49823 -15.125,-7.375 -4.5632,-4.67153 -4.8775,-12.39295 -2.0312,-17.65625 -14.8265,-15.41208 -34.9479,-28.511 -57.0313,-27.28125 -5.5468,3.54433 -13.5928,4.64651 -18.1875,-1.03125 -0.8608,-0.73603 -1.9957,-1.59967 -3.1562,-1.34375 z m 27.5937,90.0625 c 11.0625,-0.47194 19.7661,9.71115 20.5,20.09375 3.7744,5.88493 7.0309,12.30794 8.5937,19.03125 4.1969,5.77081 4.5639,14.6184 -0.5624,19.96875 1.6209,5.92006 -0.2996,12.78454 -6.375,15.1875 -13.4101,9.27386 -32.1128,11.09869 -46.125,1.96875 -10.8523,-6.69844 -19.4086,-16.84126 -25.9688,-27.65625 -4.6996,-12.97701 4.3522,-26.28864 13.4688,-34.8125 9.995,-8.74555 23.2182,-13.57371 36.4687,-13.78125 z m -8.2187,153.9375 c -2.7809,0.15202 -7.8562,0.48479 -9.2188,1.34375 5.1655,1.92637 11.0532,6.36957 16.6562,4 0.5669,-2.02023 6.3709,-2.9712 2.25,-3.75 -2.9861,-1.45204 -6.3867,-1.64586 -9.6874,-1.59375 z m 128.9687,5.28125 c 10.9875,-0.39588 13.1557,16.46754 4.25,21.0625 -8.242,5.25946 -19.3487,-4.06966 -16.3125,-13.09375 1.7733,-4.84793 7.0524,-7.7469 12.0625,-7.96875 z m 9.9063,84.28125 c -2.927,2.2983 0.038,7.38749 -2.9376,10.09375 -5.6891,9.0474 -20.2598,9.0627 -26.3437,0.90625 -5.4496,2.3743 -7.7533,8.86488 -13.2295,11.48551 -8.1886,6.64927 -20.3772,12.62871 -30.3955,6.54574 -4.8847,0.25635 -8.6254,5.24956 -12.125,7.1875 7.2426,0.80388 15.2074,5.13685 16.7187,12.5625 5.7075,-1.39341 11.1798,-3.89889 16.6876,-5.9375 8.7804,-3.6042 16.0455,-11.04875 25.0937,-13.5 10.0795,1.5514 17.3308,-7.74687 25.4063,-12.25 5.8328,-4.4842 11.4457,-9.82476 14,-16.8125 -4.2911,0.0398 -8.6009,-0.16329 -12.875,-0.28125 z"
         style="color:#000000;fill:#000000;fill-opacity:1;fill-rule:nonzero;stroke:#000000;stroke-width:0.25;stroke-linecap:round;stroke-linejoin:round;stroke-miterlimit:4;stroke-opacity:1;stroke-dasharray:none;stroke-dashoffset:0;marker:none;visibility:visible;display:inline;overflow:visible;enable-background:accumulate" />
      <path
         inkscape:connector-curvature="0"
         id="path3149"
         d="m 1876.75,212.59375 c -19.7221,4.07309 -37.1525,16.05982 -56.9688,19.65625 -4.8842,-0.55041 -10.6408,-2.71756 -14.3124,1.75 -11.0213,6.3467 -18.988,20.47961 -33.3126,19.4375 -6.4787,-1.68078 -9.4052,6.08839 -14.625,8.71875 -6.4586,8.19585 -14.3565,19.64189 -26.4374,17.5 -4.7765,1.5378 -5.5982,7.78459 -9.175,11.11642 -9.4338,13.62132 -14.9041,30.57135 -27.0438,41.94608 -4.1706,1.67511 -8.3695,4.34202 -8.75,9.1875 -5.6682,11.19684 -1.426,27.08957 -13.125,34.96875 -5.6547,2.70644 -4.4656,9.77149 -6.375,15 -1.5677,4.72001 1.1686,8.88295 3.9688,12.375 1.5623,3.05519 1.0754,-6.48387 2,-8.625 0.7482,-10.23251 6.291,-19.21785 12.25,-27.125 1.8687,-10.43351 -1.1086,-23.50909 8.2621,-31.18133 22.0175,-24.25373 50.3285,-41.51125 75.6441,-61.81867 12.9386,-5.49349 28.536,-0.97065 40.4375,-9.46875 8.6019,-4.55588 19.553,-6.41066 28.5313,-3.28125 -2.3415,-20.49682 26.9168,-34.46432 41.3437,-19.6875 3.6287,3.16433 5.6799,7.98657 6.125,12.5625 2.8483,0.40083 6.2942,2.45438 5.125,-1.90625 0.092,-11.97998 12.1584,-22.78533 24.1563,-19.03125 12.611,2.32882 23.07,14.53639 22.2187,27.3125 9.7925,2.33424 19.5974,8.70988 29.8125,4.71875 11.3008,-1.9551 24.9134,5.52934 25.0938,17.84375 3.2913,3.69871 8.7325,5.14018 12.625,8.375 7.2886,5.72214 17.6056,2.77704 24.6874,8.96875 8.4875,5.95441 11.7718,16.48971 20.5278,22.16537 5.869,4.48895 9.3101,11.00897 12.816,17.24088 6.0847,5.85251 15.8654,7.19237 19.9062,15.34375 4.9519,6.91694 3.1415,16.44614 -0.5,23.125 3.9919,7.80763 4.3566,17.269 10.8126,23.6875 7.3688,8.02415 8.039,19.87654 3.7812,29.5625 -3.194,10.61507 -1.5859,22.09733 -1.9688,33.09277 1.0105,9.96743 0.7977,21.00412 -6.5937,28.62598 13.4109,10.06536 9.6484,32.83683 -4.8125,40.125 -7.7164,4.33671 -18.1729,4.48066 -25.25,-1.21875 -8.7519,9.74277 -16.6705,20.97112 -28.3125,27.3125 16.0223,3.4607 21.4203,27.19099 8.25,37.125 -2.1897,2.38523 -5.9862,3.53932 -8.3437,4.90625 -0.1778,4.92677 4.7974,0.0695 7.3708,-0.43146 28.9264,-13.40768 55.2199,-37.13085 63.2095,-69.11652 7.2113,-22.11192 18.5778,-43.75227 17.4646,-67.66976 1.1338,-18.97065 1.4853,-38.92772 -8.1926,-55.91961 -7.3425,-15.39229 -14.4034,-31.10541 -17.5711,-47.92515 -8.5896,-21.57951 -23.5568,-39.75699 -38.625,-57.125 -10.6219,-9.82954 -25.0764,-13.48371 -38.4688,-17.53125 -15.8954,-8.0519 -18.5382,-29.89509 -34.2812,-37.46875 -9.8746,2.93487 -21.0202,-1.41183 -27.1875,-9.46875 -15.8019,10.1501 -40.7798,-4.35652 -37.6563,-23.5 1.6255,-2.92854 -3.7871,-0.95884 -5.1874,-1.375 -8.8388,1.45327 -18.8205,5.8711 -27.0938,0.0625 -2.0554,-0.95815 -3.8616,-2.92611 -6.25,-2.9375 z m -2,120.28125 c -8.4468,5.97055 -18.7321,15.06681 -29.7812,10.46875 -2.5798,-2.16069 -4.085,-2.15246 -6.0938,0.9375 -2.1355,2.02565 -12.3673,9.64956 -8.625,7.4375 9.6323,-4.85336 20.8258,-1.96661 30.8847,-5.43538 12.967,-2.29069 26.2462,-3.90858 39.3965,-3.03337 8.7765,0.61403 16.2167,5.7839 21.875,12.125 6.4464,4.46199 14.5512,5.57533 21.5,9.21875 -1.7718,-4.54642 1.7103,-10.96674 -3.4062,-13.625 -11.3901,-9.48869 -25.5984,-18.44278 -40.9375,-16.5625 -7.6995,3.63011 -17.2241,2.7635 -24.3125,-1.875 l -0.5,0.34375 z m -51.4375,24.03125 c -1.6521,1.68233 -10.2894,7.32056 -4.5625,5.09375 3.8853,-0.59816 4.6888,-4.72362 7.0625,-7.0625 -0.8333,0.65625 -1.6667,1.3125 -2.5,1.96875 z M 1786.5938,399 c -4.3676,3.18703 -7.7162,7.83694 -7.25,13.46875 -0.6317,13.96859 -8.8834,26.65105 -7.4063,40.8125 -1.9077,25.77442 12.4505,50.10919 32.5625,65.25 -4.0236,-9.16818 -10.1918,-17.15825 -13.0954,-26.86131 -3.1136,-7.51242 -9.1422,-14.53774 -6.7827,-23.22498 1.6776,-6.79048 1.7836,-13.97924 -1.7781,-20.19496 -3.8628,-10.04466 -4.053,-22.19079 2.5312,-31.125 1.4996,-5.76442 0.1159,-12.80263 1.2188,-18.125 z m 198.8437,27.6875 c -2.1099,11.81535 -7.195,24.25193 -16.9375,31.625 -7.1504,4.38709 -17.0768,1.27541 -22.625,-2.84375 2.4914,9.33053 -3.2465,17.59206 -3.7188,26.75 -3.6336,9.70801 -13.4702,15.24448 -22.7812,18.1875 15.998,8.68645 35.7259,16.7219 53.7188,9.53125 9.8716,-6.39715 10.6295,-19.47096 16.5312,-28.8125 7.4877,-16.18075 4.9203,-35.06649 -2.2702,-50.79599 -0.5344,-0.84169 -1.6846,-4.81136 -1.9173,-3.64151 z m -317.5625,5.125 c -3.1863,3.45618 -1.994,8.30925 -1.6875,12.5625 0.5718,-3.88145 1.6866,-9.55939 1.6875,-12.5625 z m 0.2812,46.21875 c 0.4417,2.18521 0.6259,11.34009 1.375,9.15625 0.5392,-3.544 -0.3677,-7.13421 -1.4687,-10.4375 l 0.073,0.99733 0.021,0.28392 z m 8.625,46.78125 c 1.484,7.07531 1.5026,0.5922 -0.5624,-2 0.1874,0.66667 0.375,1.33333 0.5624,2 z m 325.6563,61.25 c -4.1083,0.4818 2.5223,0.52784 0,0 z m -23.4687,25.46875 c -4.5478,0.90794 -9.1979,0.92949 -13.8126,1.1875 3.4302,1.78031 6.5951,4.22803 8.8126,7.4375 1.8229,-0.95351 8.5182,0.4964 7.4062,-2.25 -1.2681,-1.74753 -1.0767,-5.5982 -2.4062,-6.375 z M 1725.375,616.875 c 1.0235,2.99268 2.6309,5.45015 6.1875,4.71875 1.3062,-0.41802 -4.2145,-4.00047 -5.7187,-5.375 -2.4332,-1.98924 -1.3628,-1.15425 -0.4688,0.65625 z m 27.0312,27.9375 c 0.6907,3.50019 -1.9391,8.19874 2.5938,9.625 7.5028,5.37005 16.025,10.33372 25.5312,10.0625 -6.3057,-1.91321 -11.0788,-7.15427 -13.0937,-13.1875 -4.7932,-2.73565 -10.6636,-2.99446 -15.0625,-6.71875 l 0.031,0.21875 z m 59.6563,33.96875 c 1.54,3.29885 0.4868,8.21387 5.5326,7.83629 5.5637,1.33973 11.2546,2.01476 16.9049,2.88246 -7.6504,-3.09152 -15.3013,-7.18402 -22.4375,-10.71875 z M 1834.5,689.5 c 0.1901,0.10061 0.058,-0.0186 0,0 z m 63.75,14.375 c 1.9801,0.59811 5.0963,0.54298 6.5,0.28125 -2.0539,-0.15275 -4.9897,-0.45279 -6.5,-0.28125 z"
         style="color:#000000;fill:#000080;fill-opacity:1;fill-rule:nonzero;stroke:#000000;stroke-width:0.25;stroke-linecap:round;stroke-linejoin:round;stroke-miterlimit:4;stroke-opacity:1;stroke-dasharray:none;stroke-dashoffset:0;marker:none;visibility:visible;display:inline;overflow:visible;enable-background:accumulate" />
    </g>
  </g>
</svg>
